<?xml version="1.0" encoding="UTF-8" standalone="no"?>
<svg
   id="Ebene_1"
   data-name="Ebene 1"
   viewBox="0 0 610.61208 425.84583"
   version="1.1"
   sodipodi:docname="emx-onnx-cgen-logo-x.svg"
   inkscape:version="1.4.3 (0d15f75, 2025-12-25)"
   width="610.61206"
   height="425.84583"
   xmlns:inkscape="http://www.inkscape.org/namespaces/inkscape"
   xmlns:sodipodi="http://sodipodi.sourceforge.net/DTD/sodipodi-0.dtd"
   xmlns="http://www.w3.org/2000/svg"
   xmlns:svg="http://www.w3.org/2000/svg">
  <sodipodi:namedview
     id="namedview15"
     pagecolor="#ffffff"
     bordercolor="#000000"
     borderopacity="0.25"
     inkscape:showpageshadow="2"
     inkscape:pageopacity="0.0"
     inkscape:pagecheckerboard="0"
     inkscape:deskcolor="#d1d1d1"
     inkscape:zoom="1.1426153"
     inkscape:cx="141.78"
     inkscape:cy="229.29852"
     inkscape:window-width="1920"
     inkscape:window-height="950"
     inkscape:window-x="-9"
     inkscape:window-y="-9"
     inkscape:window-maximized="1"
     inkscape:current-layer="Ebene_1" />
  <defs
     id="defs2">
    <style
       id="style1">
      .cls-1 {
        font-family: Rajdhani-Semibold, Rajdhani;
        font-size: 49.01px;
        font-weight: 600;
      }

      .cls-1, .cls-2 {
        fill: #231f20;
      }

      .cls-3, .cls-4 {
        fill: #fff;
      }

      .cls-5, .cls-6 {
        fill: none;
      }

      .cls-7 {
        clip-path: url(#clippath-1);
      }

      .cls-4, .cls-8 {
        stroke-width: 5px;
      }

      .cls-4, .cls-8, .cls-6 {
        stroke-miterlimit: 10;
      }

      .cls-4, .cls-6 {
        stroke: #1a67a9;
      }

      .cls-8 {
        stroke: #fff;
      }

      .cls-8, .cls-9 {
        fill: #1a67a9;
      }

      .cls-10 {
        clip-path: url(#clippath-2);
      }

      .cls-6 {
        stroke-width: 1.5px;
      }
    </style>
    <clipPath
       id="clippath-1">
      <rect
         class="cls-5"
         x="264.66"
         y="-14.34"
         width="875.26001"
         height="235.48"
         id="rect1" />
    </clipPath>
    <clipPath
       id="clippath-2">
      <rect
         class="cls-5"
         x="264.66"
         y="-14.34"
         width="875.26001"
         height="235.48"
         id="rect2" />
    </clipPath>
  </defs>
  <g
     id="g17"
     transform="translate(-486.46792,247.25581)">
    <text
       class="cls-1"
       transform="translate(524.31,178.59)"
       id="text2"><tspan
         x="0"
         y="0"
         id="tspan2">ONNX-to-C Code Generator</tspan></text>
    <g
       class="cls-7"
       clip-path="url(#clippath-1)"
       id="g13">
      <path
         class="cls-2"
         d="m 548.38,67.84 h -42.89 c 1.14,-10.72 7.31,-23.07 22.26,-23.07 13.16,0 20.63,10.4 20.63,23.07 m 16.25,11.37 c 0,-26.64 -8.93,-46.78 -36.55,-46.78 -23.39,0 -38.83,17.38 -38.83,41.91 0,26.97 13.48,44.84 42.89,44.84 13.65,0 24.95,-4.95 24.95,-4.95 l -7.01,-11.22 c 0,0 -11.45,3.82 -17.29,3.82 -14.46,0 -27.29,-11.21 -27.29,-27.62 z"
         id="path8" />
      <path
         class="cls-2"
         d="m 715.66,117.32 h 15.29 V 75.53 c 0,-15.45 6.18,-30.74 21.79,-30.74 12.36,0 14.8,12.85 14.8,23.09 v 49.44 h 15.29 V 75.53 c 0,-15.45 6.18,-30.74 21.79,-30.74 12.36,0 14.8,12.85 14.8,23.09 v 49.44 H 834.7 V 64.14 c 0,-18.05 -7.64,-31.71 -28.78,-31.71 -7.48,0 -20,4.23 -25.69,16.1 -4.39,-11.22 -13.98,-16.1 -23.58,-16.1 -12.2,0 -20.49,4.39 -26.35,13.99 h -0.32 V 34.39 l -14.31,0.06 v 82.87 z"
         id="path9" />
      <path
         class="cls-2"
         d="m 581.25,117.32 h 15.29 V 75.53 c 0,-15.45 6.18,-30.74 21.79,-30.74 12.36,0 14.8,12.85 14.8,23.09 v 49.44 h 15.29 V 75.53 c 0,-15.45 6.18,-30.74 21.79,-30.74 12.36,0 14.8,12.85 14.8,23.09 v 49.44 h 15.28 V 64.14 c 0,-18.05 -7.64,-31.71 -28.78,-31.71 -7.48,0 -20,4.23 -25.69,16.1 -4.39,-11.22 -13.99,-16.1 -23.58,-16.1 -12.2,0 -20.49,4.39 -26.35,13.99 h -0.32 V 34.39 l -14.31,0.06 v 82.87 z"
         id="path10" />
      <polygon
         class="cls-2"
         points="1097.08,117.23 1067.84,73.85 1094.48,34.38 1077.43,34.38 1060.33,62.69 1041.04,34.38 1022.03,34.38 1049,73.85 1019.11,117.23 1037.3,117.23 1057.77,84.74 1078.24,117.23 "
         id="polygon10" />
      <rect
         class="cls-2"
         x="986.09003"
         y="1.21"
         width="15.1"
         height="15.1"
         id="rect10" />
      <rect
         class="cls-2"
         x="986.01001"
         y="34.380001"
         width="15.27"
         height="82.849998"
         id="rect11" />
      <g
         class="cls-10"
         clip-path="url(#clippath-2)"
         id="g12">
        <path
           class="cls-2"
           d="M 901.7,34.38 H 879.77 V 0.88 L 864.5,15.21 v 19.17 h -18.68 v 12.35 h 18.68 v 48.41 c 0,16.57 9.75,24.04 25.5,24.04 4.87,0 9.58,-1.3 13,-2.28 v -12.99 c -2.27,1.46 -5.69,2.92 -10.4,2.92 -6.98,0 -12.83,-5.2 -12.83,-14.78 V 46.73 h 21.93 z"
           id="path11" />
        <path
           class="cls-2"
           d="m 920.87,117.23 h 15.27 V 79.54 c 0,-20.79 8.93,-33.79 22.58,-33.79 2.6,0 5.69,0.33 8.45,1.46 V 33.56 c -3.25,-0.65 -5.52,-1.14 -10.07,-1.14 -8.77,0 -17.54,6.17 -21.6,14.78 h -0.33 V 34.37 h -14.3 v 82.85 z"
           id="path12" />
      </g>
    </g>
  </g>
  <g
     id="g16"
     transform="matrix(1.444948,0,0,1.444948,-1.8639829,-16.50597)">
    <polygon
       class="cls-4"
       points="3.79,51.81 3.79,126.81 68.74,164.31 133.69,126.81 133.69,51.81 68.74,14.31 "
       id="polygon2" />
    <circle
       class="cls-8"
       cx="123.17"
       cy="45.779999"
       r="10.17"
       id="circle2" />
    <circle
       class="cls-8"
       cx="55.169998"
       cy="85.660004"
       r="10.17"
       id="circle3" />
    <circle
       class="cls-8"
       cx="95.349998"
       cy="121.66"
       r="10.17"
       id="circle4" />
    <circle
       class="cls-8"
       cx="35.48"
       cy="144.88"
       r="10.17"
       id="circle5" />
    <line
       class="cls-6"
       x1="50.939999"
       y1="87.720001"
       x2="123.27"
       y2="45.950001"
       id="line5" />
    <line
       class="cls-6"
       x1="35.740002"
       y1="143.75"
       x2="95.480003"
       y2="122.01"
       id="line6" />
    <line
       class="cls-6"
       x1="96.110001"
       y1="119.57"
       x2="123.45"
       y2="44.459999"
       id="line7" />
    <line
       class="cls-6"
       x1="95.279999"
       y1="121.06"
       x2="54.330002"
       y2="84.199997"
       id="line8" />
    <polygon
       class="cls-9"
       points="262.95,89.64 215.85,47.14 215.85,65.61 157.49,65.61 157.49,112.77 215.85,112.77 215.85,132.14 "
       id="polygon13" />
    <g
       id="g14">
      <path
         d="m 408.27,48.15 c 0,-7.16 -5.81,-12.96 -12.96,-12.96 H 379.75 V 19.63 h -5.19 V 35.19 H 364.19 V 19.63 H 359 V 35.19 H 348.63 V 19.63 h -5.19 V 35.19 H 333.07 V 19.63 h -5.19 v 15.56 h -15.56 c -7.16,0 -12.96,5.81 -12.96,12.96 V 63.71 H 283.8 v 5.19 h 15.56 V 79.27 H 283.8 v 5.19 h 15.56 V 94.83 H 283.8 v 5.19 h 15.56 v 10.37 H 283.8 v 5.19 h 15.56 v 15.56 c 0,7.16 5.81,12.96 12.96,12.96 h 15.56 v 15.56 h 5.19 V 144.1 h 10.37 v 15.56 h 5.19 V 144.1 H 359 v 15.56 h 5.19 V 144.1 h 10.37 v 15.56 h 5.19 V 144.1 h 15.56 c 7.16,0 12.96,-5.81 12.96,-12.96 v -15.56 h 15.56 v -5.19 h -15.56 v -10.37 h 15.56 V 94.83 H 408.27 V 84.46 h 15.56 V 79.27 H 408.27 V 68.9 h 15.56 v -5.19 h -15.56 z"
         id="path13" />
      <rect
         class="cls-3"
         x="304.57001"
         y="41.52"
         width="98.519997"
         height="98.519997"
         rx="7.7800002"
         ry="7.7800002"
         id="rect13" />
      <rect
         x="309.98999"
         y="46.939999"
         width="87.68"
         height="87.68"
         rx="6.9200001"
         ry="6.9200001"
         id="rect14" />
      <path
         class="cls-3"
         d="m 357.78,112.98 h -7.91 c -3.83,0 -6.78,-1.02 -8.86,-3.05 -2.08,-2.03 -3.12,-4.96 -3.12,-8.79 V 78.12 c 0,-3.82 1.04,-6.75 3.12,-8.79 2.08,-2.03 5.03,-3.05 8.86,-3.05 h 7.91 c 3.78,0 6.72,1.03 8.82,3.09 2.11,2.06 3.16,4.97 3.16,8.75 v 3.41 c 0,1.07 -0.53,1.6 -1.6,1.6 h -6.1 c -1.02,0 -1.52,-0.53 -1.52,-1.6 v -2.97 c 0,-1.55 -0.33,-2.65 -0.98,-3.31 -0.65,-0.65 -1.76,-0.98 -3.31,-0.98 h -4.94 c -1.5,0 -2.58,0.33 -3.23,0.98 -0.65,0.65 -0.98,1.76 -0.98,3.31 v 22.15 c 0,1.55 0.33,2.65 0.98,3.3 0.65,0.65 1.73,0.98 3.23,0.98 h 4.94 c 1.55,0 2.65,-0.33 3.31,-0.98 0.65,-0.65 0.98,-1.75 0.98,-3.3 v -2.98 c 0,-1.07 0.51,-1.6 1.52,-1.6 h 6.1 c 1.06,0 1.6,0.53 1.6,1.6 v 3.41 c 0,3.78 -1.05,6.69 -3.16,8.75 -2.11,2.06 -5.05,3.09 -8.82,3.09"
         id="path14" />
    </g>
  </g>
</svg>
